M48
;DRILL file {KiCad 4.0.7} date 06/11/18 11:57:02
;FORMAT={-:-/ absolute / inch / decimal}
FMAT,2
INCH,TZ
T1C0.016
T2C0.028
T3C0.039
T4C0.059
T5C0.197
%
G90
G05
M72
T1
X5.1722Y-3.4709
T2
X5.2Y-3.65
X5.2Y-3.75
X5.2Y-3.85
X5.2Y-4.85
X5.2Y-4.95
X5.2Y-5.05
X5.2Y-5.15
X5.2Y-5.25
X5.2Y-5.35
T3
X5.46Y-3.76
X5.46Y-3.86
X5.46Y-3.96
X5.46Y-4.06
X5.46Y-4.16
X5.46Y-4.26
X5.46Y-4.36
X5.46Y-4.46
X5.46Y-4.56
X5.46Y-4.66
X5.46Y-4.76
X5.46Y-4.86
X5.51Y-4.96
X5.56Y-4.01
X5.56Y-4.11
X5.56Y-4.41
X5.56Y-4.51
X5.61Y-4.96
X5.71Y-4.96
X5.81Y-4.96
X5.91Y-4.96
X6.01Y-4.96
X6.06Y-3.76
X6.06Y-3.86
X6.06Y-3.96
X6.06Y-4.06
X6.06Y-4.16
X6.06Y-4.26
X6.06Y-4.36
X6.06Y-4.46
X6.06Y-4.56
X6.06Y-4.66
X6.06Y-4.76
X6.06Y-4.86
T4
X5.37Y-5.2525
X5.37Y-5.47
X5.66Y-5.48
X6.Y-5.48
X6.01Y-5.2
T5
X4.92Y-3.77
X4.92Y-4.25
X4.93Y-2.67
X4.955Y-3.1825
X5.46Y-2.68
X5.46Y-3.1875
T0
M30
